<?xml version="1.0" standalone="no"?>
<!DOCTYPE svg PUBLIC "-//W3C//DTD SVG 20010904//EN"
 "http://www.w3.org/TR/2001/REC-SVG-20010904/DTD/svg10.dtd">
<svg version="1.0" xmlns="http://www.w3.org/2000/svg"
 width="300.000000pt" height="91.000000pt" viewBox="0 0 300.000000 91.000000"
 preserveAspectRatio="xMidYMid meet">
<metadata>
Created by potrace 1.10, written by Peter Selinger 2001-2011
</metadata>
<g transform="translate(0.000000,91.000000) scale(0.100000,-0.100000)"
fill="#000000" stroke="none">
<path d="M100 440 l0 -370 400 0 400 0 -2 368 -3 367 -397 3 -398 2 0 -370z
m283 188 c14 -46 38 -123 52 -172 18 -58 30 -85 35 -75 4 8 29 85 56 172 l47
157 94 0 93 0 0 -265 0 -265 -60 0 -60 0 0 193 c0 107 -4 185 -9 177 -4 -8
-30 -95 -56 -192 l-49 -178 -60 0 -61 0 -49 178 c-27 97 -53 184 -57 192 -5 8
-9 -70 -9 -177 l0 -193 -60 0 -60 0 0 265 0 265 94 0 94 0 25 -82z m485 -180
c-2 -18 -10 -23 -33 -23 -23 0 -31 5 -33 23 -3 19 1 22 33 22 32 0 36 -3 33
-22z m2 -163 l0 -105 -35 0 -35 0 0 105 0 105 35 0 35 0 0 -105z"/>
<path d="M1120 430 l0 -370 395 0 395 0 0 370 0 370 -395 0 -395 0 0 -370z
m603 268 c49 -15 103 -64 113 -103 10 -39 -21 -94 -63 -114 -40 -20 -41 -27
-4 -34 43 -9 99 -62 107 -102 12 -68 -55 -143 -146 -164 -25 -6 -154 -11 -287
-11 l-243 0 0 270 0 270 241 0 c159 0 255 -4 282 -12z"/>
<path d="M1370 560 l0 -60 114 0 c122 0 170 11 187 42 15 27 -11 64 -52 72
-17 3 -80 6 -140 6 l-109 0 0 -60z"/>
<path d="M1370 329 l0 -72 140 6 c149 5 182 15 193 57 3 13 -3 30 -18 48 -23
27 -25 27 -169 30 l-146 3 0 -72z"/>
<path d="M2110 430 l0 -370 395 0 395 0 0 370 0 370 -395 0 -395 0 0 -370z
m567 265 c61 -18 127 -65 148 -105 17 -34 18 -33 -83 -45 -50 -5 -54 -4 -85
28 -84 89 -282 58 -317 -49 -17 -52 -8 -148 17 -182 61 -82 216 -95 290 -24
15 15 33 35 38 44 9 16 15 16 80 1 39 -9 71 -17 73 -18 7 -6 -27 -61 -50 -81
-82 -76 -278 -106 -418 -65 -68 20 -143 74 -174 125 -27 42 -30 58 -30 120 0
128 65 207 209 252 57 18 240 17 302 -1z"/>
</g>
</svg>
